<svg width="800" height="740" viewBox="0 0 800 740" fill="none" xmlns="http://www.w3.org/2000/svg">
<path d="M375.046 166.185V167.139C375.046 186.339 371.692 204.77 365.569 221.877L365.938 220.739C359.508 238.462 349.138 253.446 335.785 265.108L335.662 265.2C322.708 276.862 305.477 283.97 286.585 283.97C286.092 283.97 285.6 283.97 285.108 283.97H285.169C259.231 283.785 235.785 273.262 218.708 256.308C199.508 238.646 184.431 216.862 174.8 192.339L174.4 191.17C165.569 169.693 160.308 144.8 159.969 118.708V118.585C159.969 118.308 159.969 117.97 159.969 117.631C159.969 98.4311 163.323 80.0003 169.446 62.8926L169.077 64.0311C175.508 46.308 185.877 31.3234 199.231 19.6618L199.354 19.5695C212.308 7.90799 229.569 0.769531 248.462 0.769531C249.015 0.769531 249.569 0.769531 250.123 0.8003H250.031C275.969 0.954147 299.446 11.4772 316.492 28.4618C335.477 46.0926 350.462 67.8157 360.062 92.1849L360.462 93.3541C369.354 114.893 374.615 139.908 374.892 166.093V166.185H375.046ZM210.585 398.431C210.615 399.2 210.615 400.093 210.615 401.016C210.615 425.077 203.046 447.354 190.154 465.631L190.4 465.262C178.308 482.523 158.492 493.693 136.092 493.693C135.077 493.693 134.062 493.662 133.046 493.631H133.2C106.954 493.293 83.1077 483.231 65.0769 466.862L65.1692 466.954C26.2769 433.446 1.38462 384.585 0.0307692 329.908V329.662C0 328.923 0 328.031 0 327.139C0 302.985 7.56923 280.585 20.4615 262.216L20.2154 262.585C32.2462 245.17 52.0923 233.908 74.5846 233.908C75.5692 233.908 76.5846 233.939 77.5692 233.97H77.4154C103.662 234.308 127.508 244.37 145.538 260.739L145.446 260.646C184.4 294.339 209.262 343.385 210.585 398.277V398.493V398.431ZM400.154 385.446C446.954 388.123 489.262 405.323 523.169 432.554L522.738 432.216C566.4 463.385 602.985 501.2 631.877 544.585L632.862 546.154C658.215 580.093 674.431 622.185 677.138 667.908L677.169 668.523C677.2 669.323 677.231 670.277 677.231 671.2C677.231 683.631 674.185 695.385 668.8 705.693L668.985 705.293C663.692 714.862 655.692 722.339 645.969 726.8L645.661 726.923C636.708 731.2 626.277 734.554 615.385 736.431L614.646 736.523C604.308 738.216 592.431 739.169 580.308 739.169C579.538 739.169 578.769 739.169 578 739.169H578.123C545.077 736.893 514.4 729.139 486.185 716.831L487.969 717.539C462.277 706.154 432.462 698.431 401.2 695.97L400.246 695.908C366.308 698.431 334.862 706.062 305.631 718.031L307.692 717.293C279.354 728.893 246.492 736.554 212.154 738.646L211.292 738.677C152.503 738.718 123.108 715.344 123.108 668.554C124.585 634.431 134.4 602.893 150.554 575.57L150.031 576.493C169.015 541.139 191.292 510.708 217.231 483.816L217.108 483.939C243.108 456.831 272.738 433.508 305.354 414.739L307.262 413.723C333.692 397.108 365.508 386.739 399.662 385.385H400.031L400.154 385.446ZM515.077 284C514.646 284 514.154 284 513.662 284C494.769 284 477.538 276.862 464.523 265.17L464.585 265.231C451.108 253.446 440.708 238.493 434.554 221.477L434.308 220.739C428.523 204.77 425.169 186.339 425.169 167.139C425.169 166.8 425.169 166.462 425.169 166.123V166.185C425.446 139.877 430.708 114.893 440.092 92.0003L439.6 93.3541C449.631 67.7849 464.585 46.0926 483.477 28.5541L483.6 28.4618C500.646 11.508 524.123 0.984916 550.031 0.83107H550.062H551.477C570.369 0.83107 587.6 7.96953 600.615 19.6618L600.554 19.6003C614.031 31.3849 624.431 46.3388 630.585 63.3541L630.831 64.0926C636.708 80.1541 640.092 98.708 640.092 118.031V118.646V118.616C639.785 144.831 634.492 169.754 625.169 192.554L625.662 191.2C615.631 216.893 600.554 238.677 581.477 256.216L581.354 256.339C564.277 273.231 540.831 283.754 514.923 283.908H514.892L515.077 284ZM722.769 234.031C723.631 234 724.615 233.97 725.6 233.97C748.092 233.97 767.938 245.231 779.815 262.431L779.969 262.646C792.615 280.677 800.185 303.046 800.185 327.231C800.185 328.123 800.185 328.985 800.154 329.877V329.754C798.8 384.677 773.908 433.539 735.262 466.8L735.015 467.016C717.077 483.293 693.231 493.354 667.046 493.693H666.985C666.123 493.723 665.108 493.754 664.092 493.754C641.692 493.754 621.877 482.616 609.938 465.539L609.785 465.323C597.138 447.416 589.569 425.108 589.569 401.077C589.569 400.185 589.569 399.262 589.6 398.37V398.493C590.923 343.385 615.785 294.339 654.492 260.831L654.738 260.616C672.677 244.4 696.461 234.339 722.585 234H722.646L722.769 234.031Z" fill="#FF6F06"/>
</svg>
