<svg width="350" height="368" viewBox="0 0 350 368" fill="none" xmlns="http://www.w3.org/2000/svg">
<rect width="350" height="350" rx="14" fill="none"/>
<g filter="url(#filter0_d_1902_3850)">
<path fill-rule="evenodd" clip-rule="evenodd" d="M272.147 285.288C222.609 326.724 155.723 328.362 122.753 288.945C89.7825 249.529 103.213 183.985 152.751 142.548C202.288 101.112 269.174 99.4743 302.145 138.891C335.115 178.307 321.684 243.851 272.147 285.288ZM257.5 233.972V244.346C257.5 244.363 257.5 244.38 257.5 244.396V267.475C257.5 268.261 256.642 268.733 255.987 268.298C253.112 266.387 246.83 262.007 243.307 257.992C240.683 255.002 237.937 250.331 236.295 247.346H189.289C187.647 250.331 184.901 255.002 182.277 257.992C178.754 262.007 172.472 266.387 169.597 268.298C168.942 268.733 168.084 268.261 168.084 267.475V244.386L168.084 244.346V216.283C168.084 214.626 169.427 213.283 171.084 213.283H242.145L255.859 201.802C256.51 201.257 257.501 201.719 257.501 202.568V233.931C257.501 233.94 257.501 233.948 257.501 233.956C257.501 233.962 257.5 233.967 257.5 233.972ZM166.665 160.629V178.377V183.582V202.763C166.665 203.868 167.56 204.763 168.665 204.763H206.692C207.395 204.763 208.046 204.394 208.407 203.792L223.039 179.406C223.839 178.073 222.878 176.377 221.324 176.377H189.374L189.374 176.375C188.707 174.81 188.019 173.958 187.062 172.774L187.062 172.774L187.061 172.772C186.894 172.566 186.719 172.35 186.535 172.117C185.094 170.302 183.995 169.321 182.461 167.951L182.46 167.95C182.179 167.699 181.883 167.435 181.567 167.15C181.265 166.877 180.99 166.624 180.73 166.385L180.73 166.385C179.606 165.353 178.767 164.583 177.31 163.602C174.565 161.753 170.063 160.311 167.901 159.685C167.274 159.503 166.665 159.977 166.665 160.629Z" fill="url(#paint0_linear_1902_3850)"/>
</g>
<g filter="url(#filter1_d_1902_3850)">
<circle cx="210.431" cy="64.241" r="31.9343" fill="url(#paint1_linear_1902_3850)"/>
</g>
<g filter="url(#filter2_d_1902_3850)">
<circle cx="112.498" cy="95.4636" r="31.9343" fill="url(#paint2_linear_1902_3850)"/>
</g>
<g filter="url(#filter3_d_1902_3850)">
<circle cx="64.2419" cy="183.462" r="31.9343" fill="url(#paint3_linear_1902_3850)"/>
</g>
<path d="M124.34 340.232H133.268C136.964 340.232 139.82 340.952 141.836 342.392C143.876 343.832 144.896 345.848 144.896 348.44C144.896 350.072 144.392 351.5 143.384 352.724C142.4 353.948 141.044 354.896 139.316 355.568C137.612 356.216 135.716 356.54 133.628 356.54H132.116V365H124.34V340.232ZM133.664 351.536C134.936 351.536 135.92 351.272 136.616 350.744C137.312 350.216 137.66 349.448 137.66 348.44C137.66 347.432 137.312 346.676 136.616 346.172C135.944 345.668 134.96 345.416 133.664 345.416H132.116V351.464C132.596 351.512 133.112 351.536 133.664 351.536ZM156.187 365.288C154.195 365.288 152.419 364.892 150.859 364.1C149.323 363.284 148.123 362.18 147.259 360.788C146.395 359.372 145.963 357.776 145.963 356C145.963 354.176 146.407 352.556 147.295 351.14C148.183 349.724 149.383 348.632 150.895 347.864C152.407 347.096 154.087 346.712 155.935 346.712C157.711 346.712 159.223 347.108 160.471 347.9C161.743 348.668 162.691 349.724 163.315 351.068C163.939 352.388 164.251 353.876 164.251 355.532C164.251 355.964 164.227 356.276 164.179 356.468L153.379 357.872C153.667 358.712 154.135 359.324 154.783 359.708C155.431 360.068 156.283 360.248 157.339 360.248C158.971 360.248 160.735 359.828 162.631 358.988L163.531 363.812C161.299 364.796 158.851 365.288 156.187 365.288ZM158.671 353.336C158.287 351.824 157.375 351.068 155.935 351.068C155.071 351.068 154.387 351.392 153.883 352.04C153.379 352.688 153.115 353.528 153.091 354.56L158.671 353.336ZM174.75 365.288C172.638 365.288 170.994 364.688 169.818 363.488C168.642 362.264 168.054 360.584 168.054 358.448V351.428H165.75V346.964H168.594L171.942 340.16H175.578V346.964H179.754V351.428H175.578V357.548C175.578 358.148 175.77 358.616 176.154 358.952C176.538 359.288 177.078 359.456 177.774 359.456C178.422 359.456 179.01 359.312 179.538 359.024L179.826 364.064C179.226 364.424 178.446 364.724 177.486 364.964C176.55 365.18 175.638 365.288 174.75 365.288ZM188.739 365.288C186.219 365.288 184.011 364.916 182.115 364.172L182.943 359.888C184.671 360.512 186.351 360.824 187.983 360.824C189.183 360.824 189.783 360.488 189.783 359.816C189.783 359.48 189.603 359.204 189.243 358.988C188.907 358.772 188.259 358.58 187.299 358.412C185.307 358.028 183.867 357.38 182.979 356.468C182.115 355.556 181.683 354.26 181.683 352.58C181.779 350.684 182.535 349.232 183.951 348.224C185.367 347.216 187.299 346.712 189.747 346.712C190.995 346.712 192.063 346.796 192.951 346.964C193.863 347.108 194.691 347.36 195.435 347.72L194.679 352.004C193.983 351.74 193.215 351.536 192.375 351.392C191.559 351.248 190.875 351.176 190.323 351.176C189.507 351.176 188.943 351.26 188.631 351.428C188.319 351.596 188.163 351.824 188.163 352.112C188.163 352.64 188.763 353.012 189.963 353.228C192.147 353.612 193.779 354.284 194.859 355.244C195.939 356.204 196.479 357.512 196.479 359.168C196.479 361.064 195.807 362.564 194.463 363.668C193.143 364.748 191.235 365.288 188.739 365.288ZM197.376 346.964H205.728L208.5 357.764L211.2 346.964H217.788L212.064 365H203.316L197.376 346.964ZM226.007 365.288C223.991 365.288 222.419 364.64 221.291 363.344C220.163 362.048 219.599 360.284 219.599 358.052V346.964H227.231V357.728C227.231 358.28 227.375 358.712 227.663 359.024C227.975 359.312 228.371 359.456 228.851 359.456C229.331 359.456 229.823 359.312 230.327 359.024L230.723 364.028C230.195 364.436 229.499 364.748 228.635 364.964C227.795 365.18 226.919 365.288 226.007 365.288ZM223.415 344.264C222.287 344.264 221.327 343.916 220.535 343.22C219.767 342.5 219.383 341.624 219.383 340.592C219.383 339.56 219.791 338.696 220.607 338C221.423 337.304 222.359 336.956 223.415 336.956C224.519 336.956 225.467 337.316 226.259 338.036C227.075 338.756 227.483 339.608 227.483 340.592C227.483 341.648 227.075 342.524 226.259 343.22C225.443 343.916 224.495 344.264 223.415 344.264ZM239.156 365.288C237.116 365.288 235.532 364.652 234.404 363.38C233.3 362.084 232.748 360.32 232.748 358.088V341.276L240.344 340.16V357.548C240.344 358.22 240.5 358.712 240.812 359.024C241.148 359.312 241.724 359.456 242.54 359.456C243.14 359.456 243.728 359.312 244.304 359.024L244.556 364.064C242.948 364.88 241.148 365.288 239.156 365.288ZM252.761 365.288C250.721 365.288 249.137 364.652 248.009 363.38C246.905 362.084 246.353 360.32 246.353 358.088V341.276L253.949 340.16V357.548C253.949 358.22 254.105 358.712 254.417 359.024C254.753 359.312 255.329 359.456 256.145 359.456C256.745 359.456 257.333 359.312 257.909 359.024L258.161 364.064C256.553 364.88 254.753 365.288 252.761 365.288ZM269.354 365.288C267.362 365.288 265.586 364.892 264.026 364.1C262.49 363.284 261.29 362.18 260.426 360.788C259.562 359.372 259.13 357.776 259.13 356C259.13 354.176 259.574 352.556 260.462 351.14C261.35 349.724 262.55 348.632 264.062 347.864C265.574 347.096 267.254 346.712 269.102 346.712C270.878 346.712 272.39 347.108 273.638 347.9C274.91 348.668 275.858 349.724 276.482 351.068C277.106 352.388 277.418 353.876 277.418 355.532C277.418 355.964 277.394 356.276 277.346 356.468L266.546 357.872C266.834 358.712 267.302 359.324 267.95 359.708C268.598 360.068 269.45 360.248 270.506 360.248C272.138 360.248 273.902 359.828 275.798 358.988L276.698 363.812C274.466 364.796 272.018 365.288 269.354 365.288ZM271.838 353.336C271.454 351.824 270.542 351.068 269.102 351.068C268.238 351.068 267.554 351.392 267.05 352.04C266.546 352.688 266.282 353.528 266.258 354.56L271.838 353.336Z" fill="#ED5C1D"/>
<defs>
<filter id="filter0_d_1902_3850" x="100.691" y="107.367" width="227.515" height="219.102" filterUnits="userSpaceOnUse" color-interpolation-filters="sRGB">
<feFlood flood-opacity="0" result="BackgroundImageFix"/>
<feColorMatrix in="SourceAlpha" type="matrix" values="0 0 0 0 0 0 0 0 0 0 0 0 0 0 0 0 0 0 127 0" result="hardAlpha"/>
<feOffset dx="2" dy="3"/>
<feGaussianBlur stdDeviation="3"/>
<feComposite in2="hardAlpha" operator="out"/>
<feColorMatrix type="matrix" values="0 0 0 0 0 0 0 0 0 0 0 0 0 0 0 0 0 0 0.25 0"/>
<feBlend mode="normal" in2="BackgroundImageFix" result="effect1_dropShadow_1902_3850"/>
<feBlend mode="normal" in="SourceGraphic" in2="effect1_dropShadow_1902_3850" result="shape"/>
</filter>
<filter id="filter1_d_1902_3850" x="174.496" y="29.3066" width="75.8687" height="75.8691" filterUnits="userSpaceOnUse" color-interpolation-filters="sRGB">
<feFlood flood-opacity="0" result="BackgroundImageFix"/>
<feColorMatrix in="SourceAlpha" type="matrix" values="0 0 0 0 0 0 0 0 0 0 0 0 0 0 0 0 0 0 127 0" result="hardAlpha"/>
<feOffset dx="2" dy="3"/>
<feGaussianBlur stdDeviation="3"/>
<feComposite in2="hardAlpha" operator="out"/>
<feColorMatrix type="matrix" values="0 0 0 0 0 0 0 0 0 0 0 0 0 0 0 0 0 0 0.25 0"/>
<feBlend mode="normal" in2="BackgroundImageFix" result="effect1_dropShadow_1902_3850"/>
<feBlend mode="normal" in="SourceGraphic" in2="effect1_dropShadow_1902_3850" result="shape"/>
</filter>
<filter id="filter2_d_1902_3850" x="76.5637" y="60.5293" width="75.8687" height="75.8691" filterUnits="userSpaceOnUse" color-interpolation-filters="sRGB">
<feFlood flood-opacity="0" result="BackgroundImageFix"/>
<feColorMatrix in="SourceAlpha" type="matrix" values="0 0 0 0 0 0 0 0 0 0 0 0 0 0 0 0 0 0 127 0" result="hardAlpha"/>
<feOffset dx="2" dy="3"/>
<feGaussianBlur stdDeviation="3"/>
<feComposite in2="hardAlpha" operator="out"/>
<feColorMatrix type="matrix" values="0 0 0 0 0 0 0 0 0 0 0 0 0 0 0 0 0 0 0.25 0"/>
<feBlend mode="normal" in2="BackgroundImageFix" result="effect1_dropShadow_1902_3850"/>
<feBlend mode="normal" in="SourceGraphic" in2="effect1_dropShadow_1902_3850" result="shape"/>
</filter>
<filter id="filter3_d_1902_3850" x="28.3076" y="148.527" width="75.8687" height="75.8691" filterUnits="userSpaceOnUse" color-interpolation-filters="sRGB">
<feFlood flood-opacity="0" result="BackgroundImageFix"/>
<feColorMatrix in="SourceAlpha" type="matrix" values="0 0 0 0 0 0 0 0 0 0 0 0 0 0 0 0 0 0 127 0" result="hardAlpha"/>
<feOffset dx="2" dy="3"/>
<feGaussianBlur stdDeviation="3"/>
<feComposite in2="hardAlpha" operator="out"/>
<feColorMatrix type="matrix" values="0 0 0 0 0 0 0 0 0 0 0 0 0 0 0 0 0 0 0.25 0"/>
<feBlend mode="normal" in2="BackgroundImageFix" result="effect1_dropShadow_1902_3850"/>
<feBlend mode="normal" in="SourceGraphic" in2="effect1_dropShadow_1902_3850" result="shape"/>
</filter>
<linearGradient id="paint0_linear_1902_3850" x1="155.076" y1="110.367" x2="212.449" y2="317.469" gradientUnits="userSpaceOnUse">
<stop stop-color="#FFCEA9"/>
<stop offset="1" stop-color="#ED5C1D"/>
</linearGradient>
<linearGradient id="paint1_linear_1902_3850" x1="193.428" y1="32.3066" x2="211.732" y2="95.8001" gradientUnits="userSpaceOnUse">
<stop stop-color="#FFCEA9"/>
<stop offset="1" stop-color="#ED5C1D"/>
</linearGradient>
<linearGradient id="paint2_linear_1902_3850" x1="95.4955" y1="63.5293" x2="113.799" y2="127.023" gradientUnits="userSpaceOnUse">
<stop stop-color="#FFCEA9"/>
<stop offset="1" stop-color="#ED5C1D"/>
</linearGradient>
<linearGradient id="paint3_linear_1902_3850" x1="47.2394" y1="151.527" x2="65.5434" y2="215.021" gradientUnits="userSpaceOnUse">
<stop stop-color="#FFCEA9"/>
<stop offset="1" stop-color="#ED5C1D"/>
</linearGradient>
</defs>
</svg>
