<svg width="154" height="30" viewBox="0 0 154 30" fill="none" xmlns="http://www.w3.org/2000/svg">
<path d="M0.34 4.232H9.268C12.964 4.232 15.82 4.952 17.836 6.392C19.876 7.832 20.896 9.848 20.896 12.44C20.896 14.072 20.392 15.5 19.384 16.724C18.4 17.948 17.044 18.896 15.316 19.568C13.612 20.216 11.716 20.54 9.628 20.54H8.116V29H0.34V4.232ZM9.664 15.536C10.936 15.536 11.92 15.272 12.616 14.744C13.312 14.216 13.66 13.448 13.66 12.44C13.66 11.432 13.312 10.676 12.616 10.172C11.944 9.668 10.96 9.416 9.664 9.416H8.116V15.464C8.596 15.512 9.112 15.536 9.664 15.536ZM32.1865 29.288C30.1945 29.288 28.4185 28.892 26.8585 28.1C25.3225 27.284 24.1225 26.18 23.2585 24.788C22.3945 23.372 21.9625 21.776 21.9625 20C21.9625 18.176 22.4065 16.556 23.2945 15.14C24.1825 13.724 25.3825 12.632 26.8945 11.864C28.4065 11.096 30.0865 10.712 31.9345 10.712C33.7105 10.712 35.2225 11.108 36.4705 11.9C37.7425 12.668 38.6905 13.724 39.3145 15.068C39.9385 16.388 40.2505 17.876 40.2505 19.532C40.2505 19.964 40.2265 20.276 40.1785 20.468L29.3785 21.872C29.6665 22.712 30.1345 23.324 30.7825 23.708C31.4305 24.068 32.2825 24.248 33.3385 24.248C34.9705 24.248 36.7345 23.828 38.6305 22.988L39.5305 27.812C37.2985 28.796 34.8505 29.288 32.1865 29.288ZM34.6705 17.336C34.2865 15.824 33.3745 15.068 31.9345 15.068C31.0705 15.068 30.3865 15.392 29.8825 16.04C29.3785 16.688 29.1145 17.528 29.0905 18.56L34.6705 17.336ZM50.7504 29.288C48.6384 29.288 46.9944 28.688 45.8184 27.488C44.6424 26.264 44.0544 24.584 44.0544 22.448V15.428H41.7504V10.964H44.5944L47.9424 4.16H51.5784V10.964H55.7544V15.428H51.5784V21.548C51.5784 22.148 51.7704 22.616 52.1544 22.952C52.5384 23.288 53.0784 23.456 53.7744 23.456C54.4224 23.456 55.0104 23.312 55.5384 23.024L55.8264 28.064C55.2264 28.424 54.4464 28.724 53.4864 28.964C52.5504 29.18 51.6384 29.288 50.7504 29.288ZM64.7389 29.288C62.2189 29.288 60.0109 28.916 58.1149 28.172L58.9429 23.888C60.6709 24.512 62.3509 24.824 63.9829 24.824C65.1829 24.824 65.7829 24.488 65.7829 23.816C65.7829 23.48 65.6029 23.204 65.2429 22.988C64.9069 22.772 64.2589 22.58 63.2989 22.412C61.3069 22.028 59.8669 21.38 58.9789 20.468C58.1149 19.556 57.6829 18.26 57.6829 16.58C57.7789 14.684 58.5349 13.232 59.9509 12.224C61.3669 11.216 63.2989 10.712 65.7469 10.712C66.9949 10.712 68.0629 10.796 68.9509 10.964C69.8629 11.108 70.6909 11.36 71.4349 11.72L70.6789 16.004C69.9829 15.74 69.2149 15.536 68.3749 15.392C67.5589 15.248 66.8749 15.176 66.3229 15.176C65.5069 15.176 64.9429 15.26 64.6309 15.428C64.3189 15.596 64.1629 15.824 64.1629 16.112C64.1629 16.64 64.7629 17.012 65.9629 17.228C68.1469 17.612 69.7789 18.284 70.8589 19.244C71.9389 20.204 72.4789 21.512 72.4789 23.168C72.4789 25.064 71.8069 26.564 70.4629 27.668C69.1429 28.748 67.2349 29.288 64.7389 29.288ZM73.3758 10.964H81.7278L84.4998 21.764L87.1998 10.964H93.7878L88.0638 29H79.3158L73.3758 10.964ZM102.007 29.288C99.9911 29.288 98.4191 28.64 97.2911 27.344C96.1631 26.048 95.5991 24.284 95.5991 22.052V10.964H103.231V21.728C103.231 22.28 103.375 22.712 103.663 23.024C103.975 23.312 104.371 23.456 104.851 23.456C105.331 23.456 105.823 23.312 106.327 23.024L106.723 28.028C106.195 28.436 105.499 28.748 104.635 28.964C103.795 29.18 102.919 29.288 102.007 29.288ZM99.4151 8.264C98.2871 8.264 97.3271 7.916 96.5351 7.22C95.7671 6.5 95.3831 5.624 95.3831 4.592C95.3831 3.56 95.7911 2.696 96.6071 2C97.4231 1.304 98.3591 0.955998 99.4151 0.955998C100.519 0.955998 101.467 1.316 102.259 2.036C103.075 2.756 103.483 3.608 103.483 4.592C103.483 5.648 103.075 6.524 102.259 7.22C101.443 7.916 100.495 8.264 99.4151 8.264ZM115.156 29.288C113.116 29.288 111.532 28.652 110.404 27.38C109.3 26.084 108.748 24.32 108.748 22.088V5.276L116.344 4.16V21.548C116.344 22.22 116.5 22.712 116.812 23.024C117.148 23.312 117.724 23.456 118.54 23.456C119.14 23.456 119.728 23.312 120.304 23.024L120.556 28.064C118.948 28.88 117.148 29.288 115.156 29.288ZM128.761 29.288C126.721 29.288 125.137 28.652 124.009 27.38C122.905 26.084 122.353 24.32 122.353 22.088V5.276L129.949 4.16V21.548C129.949 22.22 130.105 22.712 130.417 23.024C130.753 23.312 131.329 23.456 132.145 23.456C132.745 23.456 133.333 23.312 133.909 23.024L134.161 28.064C132.553 28.88 130.753 29.288 128.761 29.288ZM145.354 29.288C143.362 29.288 141.586 28.892 140.026 28.1C138.49 27.284 137.29 26.18 136.426 24.788C135.562 23.372 135.13 21.776 135.13 20C135.13 18.176 135.574 16.556 136.462 15.14C137.35 13.724 138.55 12.632 140.062 11.864C141.574 11.096 143.254 10.712 145.102 10.712C146.878 10.712 148.39 11.108 149.638 11.9C150.91 12.668 151.858 13.724 152.482 15.068C153.106 16.388 153.418 17.876 153.418 19.532C153.418 19.964 153.394 20.276 153.346 20.468L142.546 21.872C142.834 22.712 143.302 23.324 143.95 23.708C144.598 24.068 145.45 24.248 146.506 24.248C148.138 24.248 149.902 23.828 151.798 22.988L152.698 27.812C150.466 28.796 148.018 29.288 145.354 29.288ZM147.838 17.336C147.454 15.824 146.542 15.068 145.102 15.068C144.238 15.068 143.554 15.392 143.05 16.04C142.546 16.688 142.282 17.528 142.258 18.56L147.838 17.336Z" fill="#ED5C1D"/>
</svg>
